<?xml version="1.0" encoding="utf-8"?>
<!-- Generator: Adobe Illustrator 27.4.1, SVG Export Plug-In . SVG Version: 6.00 Build 0)  -->
<svg version="1.1" id="Layer_1" xmlns="http://www.w3.org/2000/svg" xmlns:xlink="http://www.w3.org/1999/xlink" x="0px" y="0px"
	 viewBox="0 0 800 800" style="enable-background:new 0 0 800 800;" xml:space="preserve">
<style type="text/css">
	.st0{fill:#CCCCCC;}
</style>
<path class="st0" d="M265.1,502.2c-2.7,5.4-2.7,10.8-2.7,16.2c2.7,17.2,17.6,29.9,35.1,29.7h43.1v159.2c0,16.2-13.5,29.7-29.7,29.7
	h-91.7c-16.3-0.2-29.5-13.4-29.6-29.7V548.1H33.1c-24.3,0-40.5-24.3-29.7-45.9l232-420.9c9.5-17.1,31.1-23.3,48.3-13.8
	c5.8,3.2,10.6,8,13.8,13.8l97.1,186.2L265.1,502.2L265.1,502.2z M796.6,502.2l-232-420.9c-9.5-17.1-31.1-23.3-48.3-13.8
	c-5.8,3.2-10.6,8-13.8,13.8l-99.8,186.2l129.5,234.7c2.7,5.5,2.7,10.9,2.7,16.2c-2.7,17.2-17.6,29.9-35.1,29.7h-43.2v159.2
	c0.2,16.3,13.3,29.6,29.7,29.7h97.1c16.3-0.1,29.6-13.3,29.7-29.7V548.1h153.7C791.2,548.1,807.4,523.8,796.6,502.2L796.6,502.2z"/>
</svg>
